<mxfile host="app.diagrams.net" modified="2023-09-20T12:35:23.887Z" agent="Mozilla/5.0 (X11; Linux x86_64) AppleWebKit/537.36 (KHTML, like Gecko) Chrome/117.0.0.0 Safari/537.36" version="21.7.5" etag="yX7S5EHc6bFcXjG38h80" type="github">
  <diagram name="Page-1" id="q22vDRDVClw7SfhrLBAg">
    <mxGraphModel>
      <root>
        <mxCell id="0" />
        <mxCell id="1" parent="0" />
      </root>
    </mxGraphModel>
  </diagram>
</mxfile>
